{"title":"Tokyo.Twilight.1957.ECLIPSE.DVDRip.x264","uid":7479115,"size":2572559808,"categoryP":"video","categoryS":"movies","magnet":"?xt=urn:btih:ab4f03a17cc630e2879c06568e326555a1889821&amp;dn=Tokyo.Twilight.1957.ECLIPSE.DVDRip.x264&amp;tr=udp%3A%2F%2Ftracker.openbittorrent.com%3A80&amp;tr=udp%3A%2F%2Fopen.demonii.com%3A1337&amp;tr=udp%3A%2F%2Ftracker.coppersurfer.tk%3A6969&amp;tr=udp%3A%2F%2Fexodus.desync.com%3A6969","seeders":8,"leechers":1,"uploader":"tonioferah","files":3,"time":1343376638,"description":"One of Ozu's most piercing portraits of family strife, Tokyo Twilight follows the parallel paths of two sisters contending with an absent mother, unwanted pregnancy, and marital discord.\n\n__________________________________\n\nSubtitles: English (Embedded), French (.srt), Spanish (.srt)\n\n__________________________________\n\n\nGeneral\nComplete name                    : D:Tokyo Twilight (Yasujiro Ozu, 1957)Tokyo.Twilight.1957.ECLIPSE.DVDRip.x264.mkv\nFormat                           : Matroska\nFile size                        : 2.40 GiB\nDuration                         : 2h 20mn\nOverall bit rate                 : 2 435 Kbps\n\nVideo\nID                               : 1\nFormat                           : AVC\nFormat/Info                      : Advanced Video Codec\nFormat profile                   : &lt;a class=&quot;__cf_email__&quot; href=&quot;/cdn-cgi/l/email-protection&quot; data-cfemail=&quot;b3fbdad4dbf3ff809d82&quot;&gt;[email&amp;#160;protected]&lt;/a&gt;&lt;script cf-hash='f9e31' type=&quot;text/javascript&quot;&gt;\n/* &lt;![CDATA[ */!function(){try{var t=&quot;currentScript&quot;in document?document.currentScript:function(){for(var t=document.getElementsByTagName(&quot;script&quot;),e=t.length;e--;)if(t[e].getAttribute(&quot;cf-hash&quot;))return t[e]}();if(t&amp;&amp;t.previousSibling){var e,r,n,i,c=t.previousSibling,a=c.getAttribute(&quot;data-cfemail&quot;);if(a){for(e=&quot;&quot;,r=parseInt(a.substr(0,2),16),n=2;a.length-n;n+=2)i=parseInt(a.substr(n,2),16)^r,e+=String.fromCharCode(i);e=document.createTextNode(e),c.parentNode.replaceChild(e,c)}}}catch(u){}}();/* ]]&gt; */&lt;/script&gt;\nFormat settings, CABAC           : Yes\nFormat settings, ReFrames        : 9 frames\nCodec ID                         : V_MPEG4/ISO/AVC\nDuration                         : 2h 20mn\nBit rate                         : 2 195 Kbps\nWidth                            : 712 pixels\nHeight                           : 480 pixels\nDisplay aspect ratio             : 4:3\nFrame rate                       : 23.976 fps\nColor space                      : YUV\nChroma subsampling               : 4:2:0\nBit depth                        : 8 bits\nScan type                        : Progressive\nBits/(Pixel*Frame)               : 0.268\nStream size                      : 2.16 GiB (90%)\nWriting library                  : x264 core 107 r1745 4785e8e\nLanguage                         : Japanese\n\nAudio\nID                               : 3\nFormat                           : AC-3\nFormat/Info                      : Audio Coding 3\nMode extension                   : CM (complete main)\nCodec ID                         : A_AC3\nDuration                         : 2h 20mn\nBit rate mode                    : Constant\nBit rate                         : 192 Kbps\nChannel(s)                       : 1 channel\nChannel positions                : Front: C\nSampling rate                    : 48.0 KHz\nBit depth                        : 16 bits\nCompression mode                 : Lossy\nStream size                      : 193 MiB (8%)\nLanguage                         : Japanese\n\nText\nID                               : 2\nFormat                           : UTF-8\nCodec ID                         : S_TEXT/UTF8\nCodec ID/Info                    : UTF-8 Plain Text\nLanguage                         : English\n","torrent":{"xt":"urn:btih:ab4f03a17cc630e2879c06568e326555a1889821","amp;dn":"Tokyo.Twilight.1957.ECLIPSE.DVDRip.x264","amp;tr":["udp%3A%2F%2Ftracker.openbittorrent.com%3A80","udp%3A%2F%2Fopen.demonii.com%3A1337","udp%3A%2F%2Ftracker.coppersurfer.tk%3A6969","udp%3A%2F%2Fexodus.desync.com%3A6969"],"infoHash":"ab4f03a17cc630e2879c06568e326555a1889821","infoHashBuffer":{"type":"Buffer","data":[171,79,3,161,124,198,48,226,135,156,6,86,142,50,101,85,161,136,152,33]},"announce":[],"urlList":[]}}